<?xml version="1.0" standalone="no"?>
<!DOCTYPE svg PUBLIC "-//W3C//DTD SVG 20010904//EN"
 "http://www.w3.org/TR/2001/REC-SVG-20010904/DTD/svg10.dtd">
<svg version="1.0" xmlns="http://www.w3.org/2000/svg"
 width="512.000000pt" height="512.000000pt" viewBox="0 0 512.000000 512.000000"
 preserveAspectRatio="xMidYMid meet">
<metadata>
Created by potrace 1.11, written by Peter Selinger 2001-2013
</metadata>
<g transform="translate(0.000000,512.000000) scale(0.100000,-0.100000)"
fill="#000000" stroke="none">
<path d="M3080 4399 c-197 -31 -288 -88 -346 -213 -39 -85 -38 -136 4 -413 21
-139 36 -253 33 -253 -4 1 -71 84 -151 187 -175 223 -204 254 -272 290 -47 25
-64 28 -148 28 -67 0 -108 -5 -140 -17 -25 -10 -106 -66 -180 -125 -124 -99
-138 -114 -170 -177 -32 -63 -35 -76 -35 -155 0 -119 19 -154 211 -396 88
-110 163 -206 168 -213 7 -12 -34 2 -131 44 -195 84 -355 146 -403 156 -102
21 -233 -23 -305 -104 -41 -44 -67 -94 -130 -248 -42 -102 -48 -124 -48 -190
0 -119 50 -221 140 -283 21 -14 145 -71 276 -125 131 -55 240 -101 242 -104 2
-2 -42 -10 -98 -17 -455 -59 -497 -69 -578 -154 -94 -96 -114 -191 -84 -407
19 -142 36 -198 76 -257 86 -124 223 -167 433 -133 63 10 238 34 361 50 39 5
104 14 145 19 41 6 179 24 305 41 127 16 260 35 296 41 l66 10 6 227 c7 276
38 470 97 607 102 239 196 351 380 453 159 87 428 130 663 103 37 -4 67 -4 67
-1 0 5 -77 518 -99 660 -6 36 -20 128 -31 205 -11 77 -25 168 -30 203 -6 34
-15 92 -20 130 -6 37 -15 92 -20 122 -5 30 -12 80 -16 110 -16 133 -87 235
-199 286 -78 36 -170 40 -335 13z"/>
<path d="M523 2505 c-2 -1072 1 -1695 7 -1740 19 -132 83 -219 199 -274 l56
-26 1770 0 1770 0 67 33 c117 57 179 152 192 292 l6 65 -13 -51 c-30 -117
-125 -208 -245 -233 -75 -16 -3469 -16 -3544 0 -109 23 -203 105 -241 211 -9
25 -13 455 -17 1713 l-5 1680 -2 -1670z"/>
<path d="M3330 2426 c-322 -67 -496 -310 -529 -741 -11 -142 -1 -349 24 -472
59 -288 206 -446 465 -499 70 -14 118 -16 280 -11 177 5 512 42 562 62 16 6
17 19 11 129 -3 66 -7 122 -9 124 -1 2 -89 -2 -196 -8 -106 -7 -267 -12 -358
-12 -145 -1 -173 2 -234 21 -87 29 -153 91 -184 172 -17 48 -42 178 -42 225 0
12 77 14 529 14 367 0 532 3 536 11 14 22 18 374 6 445 -53 297 -191 463 -441
529 -87 23 -331 29 -420 11z m347 -297 c116 -43 185 -153 198 -314 3 -38 8
-82 10 -97 l5 -28 -385 0 -385 0 0 32 c0 54 21 161 42 218 57 150 154 208 350
209 86 1 119 -3 165 -20z"/>
</g>
</svg>
